# xmcd
#
# Track frame offsets: 
#        150
#        18817
#        37194
#        55445
#        73739
#        88718
#        108494
#        124361
#        142392
#        158071
#        174389
#        191288
#        207501
#        225823
#
# Disc length: 3232 seconds
#
# Revision: 1
# Processed by: cddbd v1.5.2PL0 Copyright (c) Steve Scherf et al.
# Submitted via: ExactAudioCopy v1.0b3
#
DISCID=c60c9e0e
DTITLE=Ha-Ash - A Tiempo - Deluxe
DYEAR=2012
DGENRE=Pop
TTITLE0=Impermeable
TTITLE1=Frente a frente
TTITLE2=Faltas tú
TTITLE3=Irremediable
TTITLE4=Que haré con este amor
TTITLE5=Sólo una vez
TTITLE6=Te amos más que ayer
TTITLE7=Te dejo en libetad
TTITLE8=De dónde sacas eso
TTITLE9=Todo no fue suficiente
TTITLE10=Camina conmigo (A dueto Con Rio Roma)
TTITLE11=Hoy no habrá mañana
TTITLE12=Un beso tuyo
TTITLE13=Camina conmigo
EXTD=A Tiempo
EXTT0=
EXTT1=
EXTT2=
EXTT3=
EXTT4=
EXTT5=
EXTT6=
EXTT7=
EXTT8=
EXTT9=
EXTT10=
EXTT11=
EXTT12=
EXTT13=
PLAYORDER=
